<svg xmlns="http://www.w3.org/2000/svg" viewBox="0 0 32 32">
  <defs>
    <linearGradient id="gradient" x1="0%" y1="0%" x2="100%" y2="100%">
      <stop offset="0%" style="stop-color:#3B82F6;stop-opacity:1" />
      <stop offset="100%" style="stop-color:#7C3AED;stop-opacity:1" />
    </linearGradient>
  </defs>
  <rect width="32" height="32" rx="6" fill="url(#gradient)"/>
  <!-- Brain/AI icon -->
  <path d="M10 14c0-2.5 2-4.5 4.5-4.5S19 11.5 19 14c0 1-.3 1.9-.8 2.7.5.8.8 1.7.8 2.8 0 2.5-2 4.5-4.5 4.5S10 22 10 19.5c0-1.1.3-2 .8-2.8-.5-.8-.8-1.7-.8-2.7z" 
        fill="none" stroke="white" stroke-width="1.5" stroke-linecap="round"/>
  <circle cx="12" cy="12" r="1" fill="white"/>
  <circle cx="20" cy="12" r="1" fill="white"/>
  <circle cx="16" cy="20" r="1" fill="white"/>
</svg>